<?xml version="1.0" standalone="no"?>
<!DOCTYPE svg PUBLIC "-//W3C//DTD SVG 20010904//EN"
 "http://www.w3.org/TR/2001/REC-SVG-20010904/DTD/svg10.dtd">
<svg version="1.0" xmlns="http://www.w3.org/2000/svg"
 width="306.000000pt" height="351.000000pt" viewBox="0 0 306.000000 351.000000"
 preserveAspectRatio="xMidYMid meet">

<g transform="translate(0.000000,351.000000) scale(0.100000,-0.100000)"
fill="#000000" stroke="none">
<path d="M1479 3144 l-65 -76 13 -72 c7 -39 12 -86 13 -104 l0 -33 -101 2
-102 2 -174 -204 c-96 -112 -208 -244 -250 -292 l-75 -88 42 -217 c23 -119 44
-227 47 -239 l5 -23 703 0 c387 0 706 3 708 8 2 4 -42 297 -98 652 -56 355
-105 666 -109 692 l-7 46 -72 6 c-40 3 -149 8 -243 11 l-170 6 -65 -77z"/>
<path d="M662 1690 c-63 -13 -159 -68 -197 -113 -64 -75 -80 -120 -80 -232 0
-87 3 -107 26 -155 33 -69 97 -133 169 -167 44 -22 73 -28 150 -31 116 -5 186
17 250 79 39 38 80 95 80 112 0 6 -163 87 -176 87 -2 0 -11 -14 -19 -31 -21
-40 -91 -72 -139 -64 -54 11 -96 42 -116 88 -26 56 -25 103 3 157 29 57 64 82
124 87 56 5 102 -18 131 -66 l18 -29 84 39 c46 22 86 42 88 44 3 2 -7 24 -22
49 -34 58 -96 111 -155 131 -57 20 -162 27 -219 15z"/>
<path d="M1212 1443 c-50 -136 -107 -292 -126 -345 l-35 -98 119 0 119 0 11
40 11 41 122 -3 121 -3 9 -37 9 -38 120 0 c114 0 119 1 113 20 -3 11 -59 165
-124 342 l-118 323 -130 3 -130 3 -91 -248z m278 -170 c0 -9 -19 -13 -60 -13
-33 0 -60 3 -60 6 0 10 52 178 58 189 6 9 62 -156 62 -182z"/>
<path d="M1850 1345 l0 -345 230 0 230 0 0 90 0 90 -125 0 -125 0 -2 253 -3
252 -102 3 -103 3 0 -346z"/>
<path d="M2390 1345 l0 -345 105 0 105 0 0 345 0 345 -105 0 -105 0 0 -345z"/>
<path d="M810 650 l0 -190 55 0 54 0 3 57 c2 46 7 59 20 61 14 3 25 -12 44
-57 l27 -61 63 0 c35 0 64 2 64 5 0 3 -14 33 -31 66 -30 60 -30 62 -11 75 29
20 45 69 39 120 -10 88 -58 114 -217 114 l-110 0 0 -190z m213 66 c9 -22 -14
-36 -60 -36 -39 0 -43 2 -43 25 0 23 3 25 49 25 32 0 51 -5 54 -14z"/>
<path d="M1180 712 c0 -113 3 -133 23 -172 31 -63 74 -85 162 -85 78 0 122 19
159 68 19 25 21 45 24 173 l3 145 -58 -3 -58 -3 -3 -125 c-3 -138 -8 -150 -67
-150 -56 0 -65 21 -65 158 l0 122 -60 0 -60 0 0 -128z"/>
<path d="M1607 833 c-4 -3 -7 -89 -7 -190 l0 -183 135 0 c152 0 184 9 205 59
16 40 5 96 -23 118 l-23 16 23 23 c51 51 16 143 -58 158 -42 8 -244 8 -252 -1z
m211 -115 c3 -15 -4 -18 -47 -18 -45 0 -51 3 -51 21 0 18 5 20 47 17 36 -2 49
-7 51 -20z m10 -140 c3 -15 -5 -18 -52 -18 -50 0 -56 2 -56 21 0 18 5 20 52
17 41 -2 54 -7 56 -20z"/>
<path d="M1940 830 c0 -5 29 -57 65 -115 65 -105 65 -105 65 -180 l0 -75 60 0
60 0 0 76 c0 76 0 76 65 184 36 59 65 111 65 114 0 3 -28 6 -63 6 l-63 0 -29
-60 c-16 -33 -31 -60 -34 -60 -3 0 -21 27 -39 60 l-33 60 -59 0 c-33 0 -60 -4
-60 -10z"/>
</g>
</svg>
